# xmcd
#
# Track frame offsets: 
#        182
#        11622
#        21910
#        32897
#        42077
#        51917
#        63557
#        75057
#        84207
#        97260
#        107710
#        118005
#        129892
#        139492
#        147432
#        158322
#
# Disc length: 2222 seconds
#
# Revision: 2
# Processed by: cddbd v1.5.2PL0 Copyright (c) Steve Scherf et al.
# Submitted via: ExactAudioCopy v1.1
#
DISCID=cb08ac10
DTITLE=Various Artist - 16 All-Time Country Greats
DYEAR=1900
DGENRE=
TTITLE0=Don Gibson - Oh Lonesome Me
TTITLE1=Jerry Lee Lewis - Bonnie B
TTITLE2=George Jones - Say It´s Not You
TTITLE3=Gene Autry - It Happened In Monterey
TTITLE4=Johnny Cash - Balled Of A Teenage Queen
TTITLE5=Patsy Cline - Walking After Midnight
TTITLE6=Jim Reeves - Welcome To My World
TTITLE7=Bob Luman - Let´s Think About Living
TTITLE8=Boxcar Willie - Country Music Nightmare
TTITLE9=Floyd Cramer - San Antonio  Rose
TTITLE10=Johnny Russel - Jambalaya
TTITLE11=Del Reeves - Girl On The Billboard
TTITLE12=Ned Miller - From A Jack To A King
TTITLE13=John D Loudermilk - Language Of Love
TTITLE14=Carl Perkins - Dixie Fried
TTITLE15=Les Paul and Mary Ford - Lady Of Spain
EXTD=
EXTT0=
EXTT1=
EXTT2=
EXTT3=
EXTT4=
EXTT5=
EXTT6=
EXTT7=
EXTT8=
EXTT9=
EXTT10=
EXTT11=
EXTT12=
EXTT13=
EXTT14=
EXTT15=
PLAYORDER=
